<?xml version="1.0" encoding="utf-8"?>
<!-- Generator: Adobe Illustrator 25.4.1, SVG Export Plug-In . SVG Version: 6.00 Build 0)  -->
<svg version="1.0" id="Layer_1" xmlns="http://www.w3.org/2000/svg" xmlns:xlink="http://www.w3.org/1999/xlink" x="0px" y="0px"
	 viewBox="0 0 922 625.6" style="enable-background:new 0 0 922 625.6;" xml:space="preserve">
<style type="text/css">
	.st0{fill:#FF0000;}
	.st1{fill:none;}
</style>
<path class="st0" d="M89,404.8h46l25.9-184.1h-46L89,404.8z M188.5,220.7l-5.8,41.4h62.7l-57.6,142.7h46l74.4-184.1H188.5z
	 M450.4,404.8h46l25.9-184.1h-46L450.4,404.8z M381.9,220.7h-46L310,404.8h115l5.2-36.8h-69.1L381.9,220.7z M827.9,257.5l5.1-36.8
	H717.9L692,404.8h115.1l5.2-36.8h-69l5.6-40.1h59.8l5.2-36.8h-59.9l4.7-33.5L827.9,257.5z M653.5,220.7l-48.6,103.4l-20.5-103.4
	h-43.7l40.5,184.1h27.6l90.7-184.1H653.5z"/>
<rect x="61" y="188.3" class="st1" width="800" height="249"/>
</svg>
